<svg width="26" height="23" viewBox="0 0 26 23" fill="none" xmlns="http://www.w3.org/2000/svg">
<path d="M25.9974 2.998C25.0306 3.44992 24.0005 3.74946 22.9264 3.89491C24.0313 3.19193 24.8746 2.08724 25.2711 0.755733C24.2409 1.41023 23.1035 1.87254 21.8914 2.13053C20.9133 1.02065 19.5192 0.333252 17.9983 0.333252C15.0476 0.333252 12.6721 2.88546 12.6721 6.01424C12.6721 6.46443 12.7078 6.8973 12.7956 7.30939C8.36466 7.0791 4.44393 4.81606 1.81007 1.36868C1.35024 2.21884 1.08052 3.19193 1.08052 4.23947C1.08052 6.20644 2.03105 7.95004 3.4479 8.95949C2.59161 8.94218 1.75157 8.67726 1.0399 8.25997C1.0399 8.27729 1.0399 8.2998 1.0399 8.32231C1.0399 11.0823 2.88733 13.3748 5.30997 13.9029C4.87613 14.0293 4.40331 14.0899 3.91261 14.0899C3.57139 14.0899 3.22693 14.0691 2.90358 13.9929C3.59414 16.2421 5.55369 17.8957 7.88371 17.9493C6.07039 19.4609 3.768 20.3717 1.2755 20.3717C0.838416 20.3717 0.419208 20.3509 0 20.2938C2.36089 21.9162 5.15886 22.8425 8.17618 22.8425C17.9837 22.8425 23.3457 14.1851 23.3457 6.68086C23.3457 6.4298 23.3375 6.18739 23.3262 5.94671C24.3839 5.14677 25.2727 4.14771 25.9974 2.998Z" fill="#1E2833"/>
</svg>
