<svg width="22" height="23" viewBox="0 0 22 23" fill="none" xmlns="http://www.w3.org/2000/svg">
<path fill-rule="evenodd" clip-rule="evenodd" d="M6.875 0.333252H15.125C18.9214 0.333252 22 3.41188 22 7.20825V15.4583C22 19.2546 18.9214 22.3333 15.125 22.3333H6.875C3.07863 22.3333 0 19.2546 0 15.4583V7.20825C0 3.41188 3.07863 0.333252 6.875 0.333252ZM15.125 20.2708C17.7787 20.2708 19.9375 18.112 19.9375 15.4583V7.20825C19.9375 4.5545 17.7787 2.39575 15.125 2.39575H6.875C4.22125 2.39575 2.0625 4.5545 2.0625 7.20825V15.4583C2.0625 18.112 4.22125 20.2708 6.875 20.2708H15.125Z" fill="#1E2833"/>
<path fill-rule="evenodd" clip-rule="evenodd" d="M5.5 11.3334C5.5 8.296 7.96262 5.83337 11 5.83337C14.0374 5.83337 16.5 8.296 16.5 11.3334C16.5 14.3707 14.0374 16.8334 11 16.8334C7.96262 16.8334 5.5 14.3707 5.5 11.3334ZM7.5625 11.3335C7.5625 13.2282 9.10525 14.771 11 14.771C12.8948 14.771 14.4375 13.2282 14.4375 11.3335C14.4375 9.43733 12.8948 7.89595 11 7.89595C9.10525 7.89595 7.5625 9.43733 7.5625 11.3335Z" fill="#1E2833"/>
<circle cx="16.9126" cy="5.42074" r="0.732875" fill="#1E2833"/>
</svg>
